<mxfile host="app.diagrams.net" agent="Mozilla/5.0 (Windows NT 10.0; Win64; x64) AppleWebKit/537.36 (KHTML, like Gecko) Chrome/137.0.0.0 Safari/537.36" version="27.1.6">
  <diagram id="ja2QpUoTLKk753a-XGXp" name="Seite-1">
    <mxGraphModel dx="1226" dy="701" grid="1" gridSize="10" guides="1" tooltips="1" connect="1" arrows="1" fold="1" page="1" pageScale="1" pageWidth="827" pageHeight="1169" math="0" shadow="0">
      <root>
        <mxCell id="0" />
        <mxCell id="1" parent="0" />
        <mxCell id="PJoLYoHYTkCLaEyLwoLc-51" value="person" style="swimlane;fontStyle=0;childLayout=stackLayout;horizontal=1;startSize=26;horizontalStack=0;resizeParent=1;resizeParentMax=0;resizeLast=0;collapsible=1;marginBottom=0;align=center;fontSize=14;" vertex="1" parent="1">
          <mxGeometry x="20" y="50" width="250" height="296" as="geometry" />
        </mxCell>
        <mxCell id="PJoLYoHYTkCLaEyLwoLc-52" value="&amp;lt;&amp;lt; get &amp;gt;&amp;gt; - id: UUID" style="text;strokeColor=none;fillColor=none;spacingLeft=4;spacingRight=4;overflow=hidden;rotatable=0;points=[[0,0.5],[1,0.5]];portConstraint=eastwest;fontSize=12;whiteSpace=wrap;html=1;" vertex="1" parent="PJoLYoHYTkCLaEyLwoLc-51">
          <mxGeometry y="26" width="250" height="30" as="geometry" />
        </mxCell>
        <mxCell id="PJoLYoHYTkCLaEyLwoLc-71" value="&amp;lt;&amp;lt; get/set &amp;gt;&amp;gt; - firstname: String" style="text;strokeColor=none;fillColor=none;spacingLeft=4;spacingRight=4;overflow=hidden;rotatable=0;points=[[0,0.5],[1,0.5]];portConstraint=eastwest;fontSize=12;whiteSpace=wrap;html=1;" vertex="1" parent="PJoLYoHYTkCLaEyLwoLc-51">
          <mxGeometry y="56" width="250" height="30" as="geometry" />
        </mxCell>
        <mxCell id="PJoLYoHYTkCLaEyLwoLc-53" value="&amp;lt;&amp;lt; get/set &amp;gt;&amp;gt; - lastname: String" style="text;strokeColor=none;fillColor=none;spacingLeft=4;spacingRight=4;overflow=hidden;rotatable=0;points=[[0,0.5],[1,0.5]];portConstraint=eastwest;fontSize=12;whiteSpace=wrap;html=1;" vertex="1" parent="PJoLYoHYTkCLaEyLwoLc-51">
          <mxGeometry y="86" width="250" height="30" as="geometry" />
        </mxCell>
        <mxCell id="PJoLYoHYTkCLaEyLwoLc-54" value="&amp;lt;&amp;lt; get/set &amp;gt;&amp;gt; - adress: Adress" style="text;strokeColor=none;fillColor=none;spacingLeft=4;spacingRight=4;overflow=hidden;rotatable=0;points=[[0,0.5],[1,0.5]];portConstraint=eastwest;fontSize=12;whiteSpace=wrap;html=1;" vertex="1" parent="PJoLYoHYTkCLaEyLwoLc-51">
          <mxGeometry y="116" width="250" height="30" as="geometry" />
        </mxCell>
        <mxCell id="PJoLYoHYTkCLaEyLwoLc-55" value="&amp;lt;&amp;lt; get/set &amp;gt;&amp;gt; - telephone: int" style="text;strokeColor=none;fillColor=none;spacingLeft=4;spacingRight=4;overflow=hidden;rotatable=0;points=[[0,0.5],[1,0.5]];portConstraint=eastwest;fontSize=12;whiteSpace=wrap;html=1;" vertex="1" parent="PJoLYoHYTkCLaEyLwoLc-51">
          <mxGeometry y="146" width="250" height="30" as="geometry" />
        </mxCell>
        <mxCell id="PJoLYoHYTkCLaEyLwoLc-58" value="&amp;lt;&amp;lt; get/set &amp;gt;&amp;gt; - superior: Person" style="text;strokeColor=none;fillColor=none;spacingLeft=4;spacingRight=4;overflow=hidden;rotatable=0;points=[[0,0.5],[1,0.5]];portConstraint=eastwest;fontSize=12;whiteSpace=wrap;html=1;" vertex="1" parent="PJoLYoHYTkCLaEyLwoLc-51">
          <mxGeometry y="176" width="250" height="30" as="geometry" />
        </mxCell>
        <mxCell id="PJoLYoHYTkCLaEyLwoLc-59" value="&amp;lt;&amp;lt; get/set &amp;gt;&amp;gt; - status: Status" style="text;strokeColor=none;fillColor=none;spacingLeft=4;spacingRight=4;overflow=hidden;rotatable=0;points=[[0,0.5],[1,0.5]];portConstraint=eastwest;fontSize=12;whiteSpace=wrap;html=1;" vertex="1" parent="PJoLYoHYTkCLaEyLwoLc-51">
          <mxGeometry y="206" width="250" height="30" as="geometry" />
        </mxCell>
        <mxCell id="PJoLYoHYTkCLaEyLwoLc-60" value="&amp;lt;&amp;lt; get/set &amp;gt;&amp;gt; - role: Role" style="text;strokeColor=none;fillColor=none;spacingLeft=4;spacingRight=4;overflow=hidden;rotatable=0;points=[[0,0.5],[1,0.5]];portConstraint=eastwest;fontSize=12;whiteSpace=wrap;html=1;" vertex="1" parent="PJoLYoHYTkCLaEyLwoLc-51">
          <mxGeometry y="236" width="250" height="30" as="geometry" />
        </mxCell>
        <mxCell id="PJoLYoHYTkCLaEyLwoLc-61" value="&amp;lt;&amp;lt; get/set &amp;gt;&amp;gt; - credentials: LoginCredentials" style="text;strokeColor=none;fillColor=none;spacingLeft=4;spacingRight=4;overflow=hidden;rotatable=0;points=[[0,0.5],[1,0.5]];portConstraint=eastwest;fontSize=12;whiteSpace=wrap;html=1;" vertex="1" parent="PJoLYoHYTkCLaEyLwoLc-51">
          <mxGeometry y="266" width="250" height="30" as="geometry" />
        </mxCell>
        <mxCell id="PJoLYoHYTkCLaEyLwoLc-62" value="adress" style="swimlane;fontStyle=0;childLayout=stackLayout;horizontal=1;startSize=26;horizontalStack=0;resizeParent=1;resizeParentMax=0;resizeLast=0;collapsible=1;marginBottom=0;align=center;fontSize=14;" vertex="1" parent="1">
          <mxGeometry x="290" y="50" width="210" height="236" as="geometry" />
        </mxCell>
        <mxCell id="PJoLYoHYTkCLaEyLwoLc-63" value="&amp;lt;&amp;lt; get &amp;gt;&amp;gt; - id: UUID" style="text;strokeColor=none;fillColor=none;spacingLeft=4;spacingRight=4;overflow=hidden;rotatable=0;points=[[0,0.5],[1,0.5]];portConstraint=eastwest;fontSize=12;whiteSpace=wrap;html=1;" vertex="1" parent="PJoLYoHYTkCLaEyLwoLc-62">
          <mxGeometry y="26" width="210" height="30" as="geometry" />
        </mxCell>
        <mxCell id="PJoLYoHYTkCLaEyLwoLc-64" value="&amp;lt;&amp;lt; get/set &amp;gt;&amp;gt;&amp;nbsp;- street: String" style="text;strokeColor=none;fillColor=none;spacingLeft=4;spacingRight=4;overflow=hidden;rotatable=0;points=[[0,0.5],[1,0.5]];portConstraint=eastwest;fontSize=12;whiteSpace=wrap;html=1;" vertex="1" parent="PJoLYoHYTkCLaEyLwoLc-62">
          <mxGeometry y="56" width="210" height="30" as="geometry" />
        </mxCell>
        <mxCell id="PJoLYoHYTkCLaEyLwoLc-65" value="&amp;lt;&amp;lt; get/set &amp;gt;&amp;gt;&amp;nbsp;- housenumber: String" style="text;strokeColor=none;fillColor=none;spacingLeft=4;spacingRight=4;overflow=hidden;rotatable=0;points=[[0,0.5],[1,0.5]];portConstraint=eastwest;fontSize=12;whiteSpace=wrap;html=1;" vertex="1" parent="PJoLYoHYTkCLaEyLwoLc-62">
          <mxGeometry y="86" width="210" height="30" as="geometry" />
        </mxCell>
        <mxCell id="PJoLYoHYTkCLaEyLwoLc-66" value="&amp;lt;&amp;lt; get/set &amp;gt;&amp;gt;&amp;nbsp;- doornumber: String" style="text;strokeColor=none;fillColor=none;spacingLeft=4;spacingRight=4;overflow=hidden;rotatable=0;points=[[0,0.5],[1,0.5]];portConstraint=eastwest;fontSize=12;whiteSpace=wrap;html=1;" vertex="1" parent="PJoLYoHYTkCLaEyLwoLc-62">
          <mxGeometry y="116" width="210" height="30" as="geometry" />
        </mxCell>
        <mxCell id="PJoLYoHYTkCLaEyLwoLc-67" value="&amp;lt;&amp;lt; get/set &amp;gt;&amp;gt;&amp;nbsp;- zip: int" style="text;strokeColor=none;fillColor=none;spacingLeft=4;spacingRight=4;overflow=hidden;rotatable=0;points=[[0,0.5],[1,0.5]];portConstraint=eastwest;fontSize=12;whiteSpace=wrap;html=1;" vertex="1" parent="PJoLYoHYTkCLaEyLwoLc-62">
          <mxGeometry y="146" width="210" height="30" as="geometry" />
        </mxCell>
        <mxCell id="PJoLYoHYTkCLaEyLwoLc-68" value="&amp;lt;&amp;lt; get/set &amp;gt;&amp;gt;&amp;nbsp;- city: String" style="text;strokeColor=none;fillColor=none;spacingLeft=4;spacingRight=4;overflow=hidden;rotatable=0;points=[[0,0.5],[1,0.5]];portConstraint=eastwest;fontSize=12;whiteSpace=wrap;html=1;" vertex="1" parent="PJoLYoHYTkCLaEyLwoLc-62">
          <mxGeometry y="176" width="210" height="30" as="geometry" />
        </mxCell>
        <mxCell id="PJoLYoHYTkCLaEyLwoLc-69" value="&amp;lt;&amp;lt; get/set &amp;gt;&amp;gt;&amp;nbsp;- country: String" style="text;strokeColor=none;fillColor=none;spacingLeft=4;spacingRight=4;overflow=hidden;rotatable=0;points=[[0,0.5],[1,0.5]];portConstraint=eastwest;fontSize=12;whiteSpace=wrap;html=1;" vertex="1" parent="PJoLYoHYTkCLaEyLwoLc-62">
          <mxGeometry y="206" width="210" height="30" as="geometry" />
        </mxCell>
        <mxCell id="PJoLYoHYTkCLaEyLwoLc-72" value="pending request" style="swimlane;fontStyle=0;childLayout=stackLayout;horizontal=1;startSize=26;horizontalStack=0;resizeParent=1;resizeParentMax=0;resizeLast=0;collapsible=1;marginBottom=0;align=center;fontSize=14;" vertex="1" parent="1">
          <mxGeometry x="530" y="50" width="240" height="206" as="geometry" />
        </mxCell>
        <mxCell id="PJoLYoHYTkCLaEyLwoLc-73" value="&amp;lt;&amp;lt; get &amp;gt;&amp;gt; - id: UUID" style="text;strokeColor=none;fillColor=none;spacingLeft=4;spacingRight=4;overflow=hidden;rotatable=0;points=[[0,0.5],[1,0.5]];portConstraint=eastwest;fontSize=12;whiteSpace=wrap;html=1;" vertex="1" parent="PJoLYoHYTkCLaEyLwoLc-72">
          <mxGeometry y="26" width="240" height="30" as="geometry" />
        </mxCell>
        <mxCell id="PJoLYoHYTkCLaEyLwoLc-74" value="&amp;lt;&amp;lt; get &amp;gt;&amp;gt;&amp;nbsp;- startDate: LocalDateTime" style="text;strokeColor=none;fillColor=none;spacingLeft=4;spacingRight=4;overflow=hidden;rotatable=0;points=[[0,0.5],[1,0.5]];portConstraint=eastwest;fontSize=12;whiteSpace=wrap;html=1;" vertex="1" parent="PJoLYoHYTkCLaEyLwoLc-72">
          <mxGeometry y="56" width="240" height="30" as="geometry" />
        </mxCell>
        <mxCell id="PJoLYoHYTkCLaEyLwoLc-75" value="&amp;lt;&amp;lt; get &amp;gt;&amp;gt;&amp;nbsp;- endDate:&amp;nbsp;&amp;nbsp;LocalDateTime" style="text;strokeColor=none;fillColor=none;spacingLeft=4;spacingRight=4;overflow=hidden;rotatable=0;points=[[0,0.5],[1,0.5]];portConstraint=eastwest;fontSize=12;whiteSpace=wrap;html=1;" vertex="1" parent="PJoLYoHYTkCLaEyLwoLc-72">
          <mxGeometry y="86" width="240" height="30" as="geometry" />
        </mxCell>
        <mxCell id="PJoLYoHYTkCLaEyLwoLc-76" value="&amp;lt;&amp;lt; get/set &amp;gt;&amp;gt;&amp;nbsp;- notes: String" style="text;strokeColor=none;fillColor=none;spacingLeft=4;spacingRight=4;overflow=hidden;rotatable=0;points=[[0,0.5],[1,0.5]];portConstraint=eastwest;fontSize=12;whiteSpace=wrap;html=1;" vertex="1" parent="PJoLYoHYTkCLaEyLwoLc-72">
          <mxGeometry y="116" width="240" height="30" as="geometry" />
        </mxCell>
        <mxCell id="PJoLYoHYTkCLaEyLwoLc-77" value="&amp;lt;&amp;lt; get &amp;gt;&amp;gt;&amp;nbsp;- creator: Person" style="text;strokeColor=none;fillColor=none;spacingLeft=4;spacingRight=4;overflow=hidden;rotatable=0;points=[[0,0.5],[1,0.5]];portConstraint=eastwest;fontSize=12;whiteSpace=wrap;html=1;" vertex="1" parent="PJoLYoHYTkCLaEyLwoLc-72">
          <mxGeometry y="146" width="240" height="30" as="geometry" />
        </mxCell>
        <mxCell id="PJoLYoHYTkCLaEyLwoLc-78" value="&amp;lt;&amp;lt; get &amp;gt;&amp;gt;&amp;nbsp;- approver: Person" style="text;strokeColor=none;fillColor=none;spacingLeft=4;spacingRight=4;overflow=hidden;rotatable=0;points=[[0,0.5],[1,0.5]];portConstraint=eastwest;fontSize=12;whiteSpace=wrap;html=1;" vertex="1" parent="PJoLYoHYTkCLaEyLwoLc-72">
          <mxGeometry y="176" width="240" height="30" as="geometry" />
        </mxCell>
        <mxCell id="PJoLYoHYTkCLaEyLwoLc-80" value="time stamp" style="swimlane;fontStyle=0;childLayout=stackLayout;horizontal=1;startSize=26;horizontalStack=0;resizeParent=1;resizeParentMax=0;resizeLast=0;collapsible=1;marginBottom=0;align=center;fontSize=14;" vertex="1" parent="1">
          <mxGeometry x="20" y="360" width="240" height="146" as="geometry" />
        </mxCell>
        <mxCell id="PJoLYoHYTkCLaEyLwoLc-81" value="&amp;lt;&amp;lt; get &amp;gt;&amp;gt; - id: UUID" style="text;strokeColor=none;fillColor=none;spacingLeft=4;spacingRight=4;overflow=hidden;rotatable=0;points=[[0,0.5],[1,0.5]];portConstraint=eastwest;fontSize=12;whiteSpace=wrap;html=1;" vertex="1" parent="PJoLYoHYTkCLaEyLwoLc-80">
          <mxGeometry y="26" width="240" height="30" as="geometry" />
        </mxCell>
        <mxCell id="PJoLYoHYTkCLaEyLwoLc-82" value="&amp;lt;&amp;lt; get &amp;gt;&amp;gt;&amp;nbsp;- startDate: LocalDateTime" style="text;strokeColor=none;fillColor=none;spacingLeft=4;spacingRight=4;overflow=hidden;rotatable=0;points=[[0,0.5],[1,0.5]];portConstraint=eastwest;fontSize=12;whiteSpace=wrap;html=1;" vertex="1" parent="PJoLYoHYTkCLaEyLwoLc-80">
          <mxGeometry y="56" width="240" height="30" as="geometry" />
        </mxCell>
        <mxCell id="PJoLYoHYTkCLaEyLwoLc-83" value="&amp;lt;&amp;lt; get &amp;gt;&amp;gt;&amp;nbsp;- endDate:&amp;nbsp;&amp;nbsp;LocalDateTime" style="text;strokeColor=none;fillColor=none;spacingLeft=4;spacingRight=4;overflow=hidden;rotatable=0;points=[[0,0.5],[1,0.5]];portConstraint=eastwest;fontSize=12;whiteSpace=wrap;html=1;" vertex="1" parent="PJoLYoHYTkCLaEyLwoLc-80">
          <mxGeometry y="86" width="240" height="30" as="geometry" />
        </mxCell>
        <mxCell id="PJoLYoHYTkCLaEyLwoLc-85" value="&amp;lt;&amp;lt; get &amp;gt;&amp;gt;&amp;nbsp;- person: Person" style="text;strokeColor=none;fillColor=none;spacingLeft=4;spacingRight=4;overflow=hidden;rotatable=0;points=[[0,0.5],[1,0.5]];portConstraint=eastwest;fontSize=12;whiteSpace=wrap;html=1;" vertex="1" parent="PJoLYoHYTkCLaEyLwoLc-80">
          <mxGeometry y="116" width="240" height="30" as="geometry" />
        </mxCell>
        <mxCell id="PJoLYoHYTkCLaEyLwoLc-87" value="login credentials" style="swimlane;fontStyle=0;childLayout=stackLayout;horizontal=1;startSize=26;horizontalStack=0;resizeParent=1;resizeParentMax=0;resizeLast=0;collapsible=1;marginBottom=0;align=center;fontSize=14;" vertex="1" parent="1">
          <mxGeometry x="310" y="360" width="240" height="116" as="geometry" />
        </mxCell>
        <mxCell id="PJoLYoHYTkCLaEyLwoLc-88" value="&amp;lt;&amp;lt; get &amp;gt;&amp;gt; - id: UUID" style="text;strokeColor=none;fillColor=none;spacingLeft=4;spacingRight=4;overflow=hidden;rotatable=0;points=[[0,0.5],[1,0.5]];portConstraint=eastwest;fontSize=12;whiteSpace=wrap;html=1;" vertex="1" parent="PJoLYoHYTkCLaEyLwoLc-87">
          <mxGeometry y="26" width="240" height="30" as="geometry" />
        </mxCell>
        <mxCell id="PJoLYoHYTkCLaEyLwoLc-89" value="&amp;lt;&amp;lt; get,set &amp;gt;&amp;gt;&amp;nbsp;- username: String" style="text;strokeColor=none;fillColor=none;spacingLeft=4;spacingRight=4;overflow=hidden;rotatable=0;points=[[0,0.5],[1,0.5]];portConstraint=eastwest;fontSize=12;whiteSpace=wrap;html=1;" vertex="1" parent="PJoLYoHYTkCLaEyLwoLc-87">
          <mxGeometry y="56" width="240" height="30" as="geometry" />
        </mxCell>
        <mxCell id="PJoLYoHYTkCLaEyLwoLc-90" value="&amp;lt;&amp;lt; get &amp;gt;&amp;gt;&amp;nbsp;- password:&amp;nbsp;&amp;nbsp;LocalDateTime" style="text;strokeColor=none;fillColor=none;spacingLeft=4;spacingRight=4;overflow=hidden;rotatable=0;points=[[0,0.5],[1,0.5]];portConstraint=eastwest;fontSize=12;whiteSpace=wrap;html=1;" vertex="1" parent="PJoLYoHYTkCLaEyLwoLc-87">
          <mxGeometry y="86" width="240" height="30" as="geometry" />
        </mxCell>
        <mxCell id="PJoLYoHYTkCLaEyLwoLc-116" value="&amp;lt;&amp;lt;enumeration&amp;gt;&amp;gt;&lt;div&gt;role&lt;/div&gt;" style="swimlane;childLayout=stackLayout;horizontal=1;startSize=60;horizontalStack=0;rounded=1;fontSize=14;fontStyle=0;strokeWidth=2;resizeParent=0;resizeLast=1;shadow=0;dashed=0;align=center;arcSize=4;whiteSpace=wrap;html=1;" vertex="1" parent="1">
          <mxGeometry x="580" y="360" width="160" height="150" as="geometry" />
        </mxCell>
        <mxCell id="PJoLYoHYTkCLaEyLwoLc-117" value="EMPLOYEE&lt;div&gt;&lt;br&gt;&lt;/div&gt;&lt;div&gt;MANAGER&lt;/div&gt;&lt;div&gt;&lt;br&gt;&lt;/div&gt;&lt;div&gt;ADMIN&lt;/div&gt;" style="align=left;strokeColor=none;fillColor=none;spacingLeft=4;spacingRight=4;fontSize=12;verticalAlign=top;resizable=0;rotatable=0;part=1;html=1;whiteSpace=wrap;" vertex="1" parent="PJoLYoHYTkCLaEyLwoLc-116">
          <mxGeometry y="60" width="160" height="90" as="geometry" />
        </mxCell>
        <mxCell id="PJoLYoHYTkCLaEyLwoLc-119" value="&amp;lt;&amp;lt;enumeration&amp;gt;&amp;gt;&lt;div&gt;employee status&lt;/div&gt;" style="swimlane;childLayout=stackLayout;horizontal=1;startSize=40;horizontalStack=0;rounded=1;fontSize=14;fontStyle=0;strokeWidth=2;resizeParent=0;resizeLast=1;shadow=0;dashed=0;align=center;arcSize=4;whiteSpace=wrap;html=1;" vertex="1" parent="1">
          <mxGeometry x="20" y="530" width="160" height="150" as="geometry" />
        </mxCell>
        <mxCell id="PJoLYoHYTkCLaEyLwoLc-120" value="&lt;div&gt;PRESENT&lt;/div&gt;&lt;div&gt;&lt;br&gt;&lt;/div&gt;&lt;div&gt;ABSENT&lt;/div&gt;&lt;div&gt;&lt;br&gt;&lt;/div&gt;&lt;div&gt;MEDICAL LEAVE&lt;/div&gt;&lt;div&gt;&lt;br&gt;&lt;/div&gt;&lt;div&gt;VACATION&lt;/div&gt;" style="align=left;strokeColor=none;fillColor=none;spacingLeft=4;spacingRight=4;fontSize=12;verticalAlign=top;resizable=0;rotatable=0;part=1;html=1;whiteSpace=wrap;" vertex="1" parent="PJoLYoHYTkCLaEyLwoLc-119">
          <mxGeometry y="40" width="160" height="110" as="geometry" />
        </mxCell>
        <mxCell id="PJoLYoHYTkCLaEyLwoLc-130" value="&amp;lt;&amp;lt;enumeration&amp;gt;&amp;gt;&lt;div&gt;request status&lt;/div&gt;" style="swimlane;childLayout=stackLayout;horizontal=1;startSize=60;horizontalStack=0;rounded=1;fontSize=14;fontStyle=0;strokeWidth=2;resizeParent=0;resizeLast=1;shadow=0;dashed=0;align=center;arcSize=4;whiteSpace=wrap;html=1;" vertex="1" parent="1">
          <mxGeometry x="230" y="530" width="160" height="150" as="geometry" />
        </mxCell>
        <mxCell id="PJoLYoHYTkCLaEyLwoLc-131" value="APPROVED&lt;div&gt;&lt;br&gt;&lt;/div&gt;&lt;div&gt;PENDING&lt;/div&gt;&lt;div&gt;&lt;br&gt;&lt;/div&gt;&lt;div&gt;DENIED&lt;/div&gt;" style="align=left;strokeColor=none;fillColor=none;spacingLeft=4;spacingRight=4;fontSize=12;verticalAlign=top;resizable=0;rotatable=0;part=1;html=1;whiteSpace=wrap;" vertex="1" parent="PJoLYoHYTkCLaEyLwoLc-130">
          <mxGeometry y="60" width="160" height="90" as="geometry" />
        </mxCell>
      </root>
    </mxGraphModel>
  </diagram>
</mxfile>
